<?xml version="1.0" standalone="no"?><!DOCTYPE svg PUBLIC "-//W3C//DTD SVG 1.1//EN" "http://www.w3.org/Graphics/SVG/1.1/DTD/svg11.dtd"><svg t="1720494097621" class="icon" viewBox="0 0 1024 1024" version="1.1" xmlns="http://www.w3.org/2000/svg" p-id="1543" xmlns:xlink="http://www.w3.org/1999/xlink" width="256" height="256"><path d="M749.504 474.624a355.648 355.648 0 0 0-13.44-6.144c-7.872-145.6-87.424-228.992-221.056-229.824h-1.856c-79.872 0-146.368 34.112-187.264 96.192l73.472 50.368c30.592-46.336 78.528-56.256 113.856-56.256h1.28c43.968 0.32 77.12 13.12 98.624 38.08 15.616 18.112 26.112 43.2 31.296 74.88a562.176 562.176 0 0 0-126.336-6.08c-127.04 7.36-208.64 81.408-203.2 184.384 2.752 52.224 28.8 97.152 73.28 126.528 37.568 24.768 85.952 36.928 136.32 34.176 66.368-3.648 118.528-28.992 154.88-75.328 27.648-35.2 45.056-80.832 52.8-138.304 31.68 19.072 55.104 44.224 68.096 74.496 22.016 51.392 23.296 135.808-45.568 204.672-60.416 60.288-132.928 86.4-242.56 87.168-121.728-0.896-213.76-39.872-273.536-115.968-56-71.168-84.928-174.08-86.016-305.664 1.088-131.648 30.016-234.496 86.016-305.664 59.84-76.096 151.808-115.072 273.472-115.968 122.56 0.896 216.128 40.064 278.272 116.48 30.464 37.504 53.376 84.608 68.48 139.52l86.144-22.912c-18.304-67.648-47.168-125.952-86.464-174.272C778.88 51.264 662.4 1.024 512.384 0h-0.64C361.984 1.024 246.912 51.392 169.6 149.76 100.672 237.248 65.216 359.04 64 511.616v0.768c1.216 152.576 36.672 274.368 105.536 361.856 77.376 98.368 192.512 148.736 342.208 149.76h0.64c133.12-0.896 226.944-35.776 304.256-113.024 101.12-101.056 98.112-227.648 64.768-305.408-23.936-55.744-69.504-101.056-131.84-130.944zM519.68 690.688c-55.68 3.2-113.536-21.824-116.352-75.392-2.112-39.68 28.224-83.968 119.744-89.216 10.496-0.64 20.8-0.896 30.912-0.896a435.2 435.2 0 0 1 92.608 9.408c-10.496 131.712-72.384 153.152-126.912 156.16z" p-id="1544" fill="#CDCCD4"></path></svg>